<svg width="24" height="24" viewBox="0 0 24 24" fill="none" xmlns="http://www.w3.org/2000/svg">
<rect width="24" height="24" rx="12" fill="#E5DD64"/>
<path d="M2.35042 13.7577C2.31404 13.7577 2.28427 13.7461 2.26112 13.7229C2.23796 13.6998 2.22639 13.67 2.22639 13.6336V11.7633H1.83941C1.80303 11.7633 1.77326 11.7517 1.75011 11.7285C1.72696 11.7054 1.71538 11.6756 1.71538 11.6392V11.3019C1.71538 11.2655 1.72696 11.2357 1.75011 11.2126C1.77326 11.1894 1.80303 11.1778 1.83941 11.1778H2.22639V10.9992C2.22639 10.7876 2.26608 10.6139 2.34546 10.4783C2.42484 10.3427 2.5406 10.2435 2.69274 10.1806C2.84488 10.1178 3.03176 10.0864 3.25336 10.0864H4.39443C4.42751 10.0864 4.45562 10.0979 4.47877 10.1211C4.50193 10.1442 4.5135 10.174 4.5135 10.2104V10.5478C4.5135 10.5841 4.50193 10.6139 4.47877 10.6371C4.45562 10.6602 4.42751 10.6718 4.39443 10.6718H3.28312C3.16075 10.6718 3.07475 10.7016 3.02514 10.7611C2.97884 10.8206 2.95568 10.9083 2.95568 11.024V11.1778H4.39443C4.42751 11.1778 4.45562 11.1894 4.47877 11.2126C4.50193 11.2357 4.5135 11.2655 4.5135 11.3019V13.6336C4.5135 13.67 4.50193 13.6998 4.47877 13.7229C4.45562 13.7461 4.42751 13.7577 4.39443 13.7577H3.90824C3.87185 13.7577 3.84209 13.7461 3.81893 13.7229C3.79578 13.6998 3.78421 13.67 3.78421 13.6336V11.7633H2.95568V13.6336C2.95568 13.67 2.94411 13.6998 2.92096 13.7229C2.8978 13.7461 2.86969 13.7577 2.83662 13.7577H2.35042ZM5.25547 13.7577C5.2224 13.7577 5.19429 13.7461 5.17113 13.7229C5.14798 13.6998 5.13641 13.67 5.13641 13.6336V11.3019C5.13641 11.2655 5.14798 11.2357 5.17113 11.2126C5.19429 11.1894 5.2224 11.1778 5.25547 11.1778H5.74167C5.77805 11.1778 5.80782 11.1894 5.83097 11.2126C5.85413 11.2357 5.8657 11.2655 5.8657 11.3019V11.4954C5.9517 11.3895 6.0625 11.3019 6.1981 11.2324C6.33371 11.1629 6.49908 11.1282 6.69422 11.1282C6.88936 11.1282 7.0597 11.1729 7.20523 11.2622C7.35406 11.3482 7.46983 11.4755 7.55251 11.6442C7.63851 11.8096 7.6815 12.0113 7.6815 12.2495V13.6336C7.6815 13.67 7.66827 13.6998 7.64181 13.7229C7.61866 13.7461 7.59055 13.7577 7.55747 13.7577H7.03159C6.9952 13.7577 6.96544 13.7461 6.94228 13.7229C6.91913 13.6998 6.90756 13.67 6.90756 13.6336V12.2792C6.90756 12.1039 6.86456 11.9683 6.77856 11.8724C6.69588 11.7732 6.5735 11.7236 6.41144 11.7236C6.25598 11.7236 6.13195 11.7732 6.03934 11.8724C5.94674 11.9683 5.90043 12.1039 5.90043 12.2792V13.6336C5.90043 13.67 5.88885 13.6998 5.8657 13.7229C5.84255 13.7461 5.81444 13.7577 5.78136 13.7577H5.25547ZM9.23343 13.8073C9.06806 13.8073 8.92087 13.7808 8.79188 13.7279C8.66289 13.6717 8.55375 13.5923 8.46444 13.4898C8.37514 13.3839 8.30734 13.2599 8.26103 13.1177C8.21473 12.9721 8.18662 12.8117 8.17669 12.6364C8.17339 12.5736 8.17173 12.5174 8.17173 12.4677C8.17173 12.4148 8.17339 12.3586 8.17669 12.2991C8.18331 12.1271 8.20977 11.97 8.25607 11.8278C8.30569 11.6855 8.37349 11.5632 8.45948 11.4606C8.54878 11.3548 8.65793 11.2737 8.78692 11.2175C8.91922 11.158 9.06806 11.1282 9.23343 11.1282C9.40542 11.1282 9.5526 11.158 9.67498 11.2175C9.79735 11.2737 9.89823 11.3482 9.97761 11.4408V10.3592C9.97761 10.3229 9.98919 10.2931 10.0123 10.2699C10.0355 10.2468 10.0653 10.2352 10.1016 10.2352H10.6126C10.6457 10.2352 10.6738 10.2468 10.697 10.2699C10.7201 10.2931 10.7317 10.3229 10.7317 10.3592V13.6336C10.7317 13.67 10.7201 13.6998 10.697 13.7229C10.6738 13.7461 10.6457 13.7577 10.6126 13.7577H10.1364C10.1033 13.7577 10.0752 13.7461 10.052 13.7229C10.0289 13.6998 10.0173 13.67 10.0173 13.6336V13.4649C9.93461 13.5642 9.83043 13.6469 9.70475 13.713C9.57906 13.7759 9.42196 13.8073 9.23343 13.8073ZM9.46165 13.2119C9.58402 13.2119 9.68159 13.1838 9.75436 13.1276C9.83043 13.0714 9.885 13.0002 9.91808 12.9143C9.95446 12.8283 9.9743 12.7357 9.97761 12.6364C9.98423 12.5736 9.98753 12.5107 9.98753 12.4479C9.98753 12.3851 9.98423 12.3239 9.97761 12.2643C9.9743 12.1717 9.95446 12.0857 9.91808 12.0064C9.8817 11.9237 9.82547 11.8559 9.7494 11.8029C9.67663 11.75 9.58072 11.7236 9.46165 11.7236C9.33596 11.7236 9.23674 11.7517 9.16397 11.8079C9.09121 11.8608 9.03829 11.9319 9.00522 12.0212C8.97545 12.1105 8.95726 12.2081 8.95064 12.3139C8.94072 12.4165 8.94072 12.519 8.95064 12.6215C8.95726 12.7274 8.97545 12.825 9.00522 12.9143C9.03829 13.0036 9.09121 13.0763 9.16397 13.1325C9.23674 13.1855 9.33596 13.2119 9.46165 13.2119ZM12.2176 13.7577C12.1812 13.7577 12.1514 13.7461 12.1283 13.7229C12.1051 13.6998 12.0935 13.67 12.0935 13.6336V10.9744H11.1906C11.1575 10.9744 11.1294 10.9628 11.1062 10.9397C11.0831 10.9165 11.0715 10.8884 11.0715 10.8554V10.4088C11.0715 10.3725 11.0831 10.3427 11.1062 10.3195C11.1294 10.2964 11.1575 10.2848 11.1906 10.2848H13.7903C13.8266 10.2848 13.8564 10.2964 13.8796 10.3195C13.9027 10.3427 13.9143 10.3725 13.9143 10.4088V10.8554C13.9143 10.8884 13.9027 10.9165 13.8796 10.9397C13.8564 10.9628 13.8266 10.9744 13.7903 10.9744H12.8923V13.6336C12.8923 13.67 12.8807 13.6998 12.8576 13.7229C12.8344 13.7461 12.8046 13.7577 12.7683 13.7577H12.2176ZM14.1605 13.7577C14.1274 13.7577 14.0993 13.7461 14.0761 13.7229C14.053 13.6998 14.0414 13.67 14.0414 13.6336V11.3019C14.0414 11.2688 14.053 11.2407 14.0761 11.2175C14.0993 11.1911 14.1274 11.1778 14.1605 11.1778H14.6466C14.6797 11.1778 14.7078 11.1911 14.731 11.2175C14.7574 11.2407 14.7707 11.2688 14.7707 11.3019V11.5003C14.8534 11.3978 14.9542 11.3184 15.0733 11.2622C15.1957 11.2059 15.3363 11.1778 15.495 11.1778H15.7083C15.7414 11.1778 15.7695 11.1894 15.7927 11.2126C15.8158 11.2357 15.8274 11.2655 15.8274 11.3019V11.7285C15.8274 11.7649 15.8158 11.7947 15.7927 11.8178C15.7695 11.841 15.7414 11.8526 15.7083 11.8526H15.2718C15.1262 11.8526 15.0121 11.8939 14.9294 11.9766C14.8468 12.056 14.8054 12.1701 14.8054 12.3189V13.6336C14.8054 13.67 14.7938 13.6998 14.7707 13.7229C14.7475 13.7461 14.7178 13.7577 14.6814 13.7577H14.1605ZM16.3164 13.7577C16.2834 13.7577 16.2553 13.7461 16.2321 13.7229C16.209 13.6998 16.1974 13.67 16.1974 13.6336V11.3019C16.1974 11.2655 16.209 11.2357 16.2321 11.2126C16.2553 11.1894 16.2834 11.1778 16.3164 11.1778H16.8126C16.8489 11.1778 16.8787 11.1894 16.9019 11.2126C16.925 11.2357 16.9366 11.2655 16.9366 11.3019V13.6336C16.9366 13.67 16.925 13.6998 16.9019 13.7229C16.8787 13.7461 16.8489 13.7577 16.8126 13.7577H16.3164ZM16.3016 10.7809C16.2685 10.7809 16.2404 10.7694 16.2172 10.7462C16.1941 10.7231 16.1825 10.6933 16.1825 10.6569V10.26C16.1825 10.2236 16.1941 10.1939 16.2172 10.1707C16.2404 10.1442 16.2685 10.131 16.3016 10.131H16.8225C16.8589 10.131 16.8886 10.1442 16.9118 10.1707C16.9382 10.1939 16.9515 10.2236 16.9515 10.26V10.6569C16.9515 10.6933 16.9382 10.7231 16.9118 10.7462C16.8886 10.7694 16.8589 10.7809 16.8225 10.7809H16.3016ZM17.6828 14.7003C17.6464 14.7003 17.6167 14.6887 17.5935 14.6656C17.5704 14.6424 17.5588 14.6126 17.5588 14.5763V11.3019C17.5588 11.2655 17.5704 11.2357 17.5935 11.2126C17.6167 11.1894 17.6464 11.1778 17.6828 11.1778H18.1541C18.1905 11.1778 18.2203 11.1894 18.2434 11.2126C18.2666 11.2357 18.2782 11.2655 18.2782 11.3019V11.4904C18.3576 11.3845 18.4601 11.2986 18.5858 11.2324C18.7115 11.1629 18.8686 11.1282 19.0571 11.1282C19.2291 11.1282 19.3779 11.1563 19.5036 11.2126C19.6326 11.2655 19.7401 11.3432 19.8261 11.4457C19.9154 11.545 19.9832 11.6657 20.0295 11.8079C20.0791 11.9501 20.1072 12.1105 20.1138 12.2891C20.1171 12.352 20.1188 12.4115 20.1188 12.4677C20.1188 12.524 20.1171 12.5852 20.1138 12.6513C20.1105 12.82 20.0841 12.9754 20.0344 13.1177C19.9881 13.2599 19.9203 13.3823 19.831 13.4848C19.7417 13.5873 19.6326 13.6667 19.5036 13.7229C19.3779 13.7792 19.2291 13.8073 19.0571 13.8073C18.8884 13.8073 18.7412 13.7775 18.6155 13.718C18.4932 13.6551 18.3923 13.5708 18.3129 13.4649V14.5763C18.3129 14.6126 18.3013 14.6424 18.2782 14.6656C18.255 14.6887 18.2269 14.7003 18.1938 14.7003H17.6828ZM18.8338 13.2119C18.9595 13.2119 19.0587 13.1855 19.1315 13.1325C19.2043 13.0763 19.2555 13.0036 19.2853 12.9143C19.3184 12.825 19.3382 12.7274 19.3448 12.6215C19.3514 12.519 19.3514 12.4165 19.3448 12.3139C19.3382 12.2081 19.3184 12.1105 19.2853 12.0212C19.2555 11.9319 19.2043 11.8608 19.1315 11.8079C19.0587 11.7517 18.9595 11.7236 18.8338 11.7236C18.7115 11.7236 18.6122 11.7517 18.5362 11.8079C18.4601 11.8641 18.4055 11.9352 18.3724 12.0212C18.3394 12.1072 18.3195 12.1998 18.3129 12.2991C18.3096 12.3586 18.3079 12.4198 18.3079 12.4826C18.3079 12.5455 18.3096 12.6083 18.3129 12.6712C18.3162 12.7638 18.3361 12.8514 18.3724 12.9341C18.4121 13.0135 18.4684 13.0796 18.5411 13.1325C18.6172 13.1855 18.7148 13.2119 18.8338 13.2119Z" fill="black"/>
<path d="M20.4408 9.57871C20.5302 9.31701 20.8918 9.30909 20.9978 9.55493L21.0068 9.57886L21.1275 9.93178C21.1551 10.0127 21.1998 10.0868 21.2585 10.149C21.3172 10.2112 21.3886 10.2601 21.4678 10.2923L21.5002 10.3044L21.8531 10.425C22.1148 10.5144 22.1228 10.876 21.8771 10.982L21.8531 10.991L21.5002 11.1117C21.4193 11.1393 21.3452 11.184 21.283 11.2427C21.2208 11.3014 21.1719 11.3728 21.1396 11.452L21.1275 11.4843L21.0069 11.8374C20.9175 12.0991 20.5559 12.107 20.4501 11.8613L20.4408 11.8374L20.3203 11.4845C20.2926 11.4035 20.248 11.3294 20.1892 11.2672C20.1305 11.205 20.0592 11.1561 19.9799 11.1238L19.9476 11.1117L19.5947 10.9911C19.3329 10.9017 19.325 10.5401 19.5708 10.4342L19.5947 10.425L19.9476 10.3044C20.0286 10.2768 20.1026 10.2321 20.1648 10.1734C20.227 10.1147 20.2759 10.0433 20.3082 9.96408L20.3203 9.93178L20.4408 9.57871ZM21.9201 9.06309C21.9481 9.06309 21.9755 9.07094 21.9993 9.08574C22.023 9.10055 22.0421 9.12171 22.0544 9.14683L22.0616 9.16433L22.1139 9.31776L22.2675 9.3701C22.2955 9.37963 22.3201 9.39726 22.3381 9.42077C22.3561 9.44428 22.3667 9.4726 22.3686 9.50215C22.3705 9.5317 22.3636 9.56114 22.3487 9.58675C22.3339 9.61236 22.3117 9.63299 22.2851 9.64601L22.2675 9.65318L22.1141 9.70552L22.0617 9.8591C22.0522 9.88713 22.0346 9.9117 22.011 9.92968C21.9875 9.94767 21.9592 9.95828 21.9297 9.96015C21.9001 9.96202 21.8707 9.95508 21.8451 9.94021C21.8195 9.92534 21.7989 9.9032 21.7859 9.8766L21.7787 9.8591L21.7263 9.70567L21.5728 9.65333C21.5447 9.64381 21.5202 9.62617 21.5022 9.60267C21.4842 9.57916 21.4735 9.55083 21.4716 9.52128C21.4698 9.49173 21.4767 9.46229 21.4915 9.43668C21.5064 9.41107 21.5285 9.39045 21.5551 9.37743L21.5728 9.37025L21.7262 9.31791L21.7785 9.16433C21.7886 9.13479 21.8077 9.10914 21.8331 9.09098C21.8585 9.07282 21.8889 9.06307 21.9201 9.06309Z" fill="black"/>
</svg>
