<svg width="30" height="30" viewBox="0 0 30 30" fill="none" xmlns="http://www.w3.org/2000/svg">
<rect width="30" height="30" rx="15" fill="#DEE87C"/>
<path fillRule="evenodd" clipRule="evenodd" d="M15 5C11.229 5 9.343 5 8.172 6.172C7.108 7.235 7.01 8.886 7 12H6C5.73478 12 5.48043 12.1054 5.29289 12.2929C5.10536 12.4804 5 12.7348 5 13V14C5 14.1552 5.03614 14.3084 5.10557 14.4472C5.175 14.5861 5.2758 14.7069 5.4 14.8L7 16C7.01 19.114 7.108 20.765 8.172 21.828C8.414 22.071 8.686 22.263 9 22.415V24C9 24.2652 9.10536 24.5196 9.29289 24.7071C9.48043 24.8946 9.73478 25 10 25H11.5C11.7652 25 12.0196 24.8946 12.2071 24.7071C12.3946 24.5196 12.5 24.2652 12.5 24V22.982C13.227 23 14.054 23 15 23C15.946 23 16.773 23 17.5 22.982V24C17.5 24.2652 17.6054 24.5196 17.7929 24.7071C17.9804 24.8946 18.2348 25 18.5 25H20C20.2652 25 20.5196 24.8946 20.7071 24.7071C20.8946 24.5196 21 24.2652 21 24V22.415C21.3073 22.2678 21.5873 22.0693 21.828 21.828C22.892 20.765 22.991 19.114 23 16L24.6 14.8C24.7242 14.7069 24.825 14.5861 24.8944 14.4472C24.9639 14.3084 25 14.1552 25 14V13C25 12.7348 24.8946 12.4804 24.7071 12.2929C24.5196 12.1054 24.2652 12 24 12H23C22.99 8.886 22.892 7.235 21.828 6.172C20.657 5 18.771 5 15 5ZM8.5 12.5C8.5 13.914 8.5 14.621 8.94 15.06C9.379 15.5 10.086 15.5 11.5 15.5H18.5C19.914 15.5 20.621 15.5 21.06 15.06C21.5 14.621 21.5 13.914 21.5 12.5V10C21.5 8.586 21.5 7.879 21.06 7.44C20.622 7 19.915 7 18.5 7H11.5C10.086 7 9.379 7 8.94 7.44C8.5 7.878 8.5 8.585 8.5 10V12.5ZM9.25 19C9.25 18.8011 9.32902 18.6103 9.46967 18.4697C9.61032 18.329 9.80109 18.25 10 18.25H11.5C11.6989 18.25 11.8897 18.329 12.0303 18.4697C12.171 18.6103 12.25 18.8011 12.25 19C12.25 19.1989 12.171 19.3897 12.0303 19.5303C11.8897 19.671 11.6989 19.75 11.5 19.75H10C9.80109 19.75 9.61032 19.671 9.46967 19.5303C9.32902 19.3897 9.25 19.1989 9.25 19ZM20.75 19C20.75 18.8011 20.671 18.6103 20.5303 18.4697C20.3897 18.329 20.1989 18.25 20 18.25H18.5C18.3011 18.25 18.1103 18.329 17.9697 18.4697C17.829 18.6103 17.75 18.8011 17.75 19C17.75 19.1989 17.829 19.3897 17.9697 19.5303C18.1103 19.671 18.3011 19.75 18.5 19.75H20C20.1989 19.75 20.3897 19.671 20.5303 19.5303C20.671 19.3897 20.75 19.1989 20.75 19Z" fill="#2E2B36"/>
</svg>
