<svg width="30" height="30" viewBox="0 0 30 30" fill="none" xmlns="http://www.w3.org/2000/svg">
<rect width="30" height="30" rx="15" fill="#FFD180"/>
<path d="M15.1186 7C14.1428 7 13.339 7.80381 13.339 8.77966V13.1363L8.35237 15.3608L8 15.5092V18.3447L8.66737 18.2712L13.339 17.7521V18.846L11.8186 19.8646L11.5593 20.0307V22.5536L12.2641 22.4053L15.1186 21.8305L17.9738 22.4059L18.678 22.5542V20.033L18.4181 19.8658L16.8983 18.8454V17.7521L21.5699 18.2712L22.2373 18.3453V15.5097L21.8849 15.3614L16.8983 13.1363V8.77966C16.8983 7.80381 16.0945 7 15.1186 7ZM15.1186 8.18644C15.4538 8.18644 15.7119 8.44449 15.7119 8.77966V13.9146L16.0642 14.0629L21.0508 16.2875V17.0112L16.3792 16.4915L15.7119 16.4174V19.4944L15.9717 19.6617L17.4915 20.6808V21.108L15.2296 20.663L15.1186 20.6263L15.0071 20.6619L12.7458 21.1068V20.6797L14.2662 19.6611L14.5254 19.4938V16.4174L13.8581 16.4915L9.18644 17.0106V16.2869L14.1731 14.0623L14.5254 13.914V8.77966C14.5254 8.44449 14.7835 8.18644 15.1186 8.18644Z" fill="#2E2B36"/>
</svg>
