<svg width="30" height="30" viewBox="0 0 30 30" fill="none" xmlns="http://www.w3.org/2000/svg">
<rect width="30" height="30" rx="15" fill="#ADEDDF"/>
<mask id="mask0_164_1109" style="mask-type:luminance" maskUnits="userSpaceOnUse" x="7" y="5" width="15" height="20">
<path d="M8.47852 13.1884V17.3551C8.47852 18.2391 8.8297 19.087 9.45483 19.7121C10.0799 20.3372 10.9278 20.6884 11.8118 20.6884H17.6452C18.5292 20.6884 19.3771 20.3372 20.0022 19.7121C20.6273 19.087 20.9785 18.2391 20.9785 17.3551V13.1884M18.8952 20.6884V22.3551M10.5618 20.6884V22.3551M13.0618 23.1884H16.3952" stroke="white" strokeWidth="1.66667" strokeLinecap="round" strokeLinejoin="round"/>
<path d="M8.47852 11.6718C8.47852 10.2718 10.9785 6.52179 14.7285 6.52179C18.4785 6.52179 20.9785 10.2718 20.9785 11.6718V13.1885H8.47852V11.6718Z" fill="white" stroke="white" strokeWidth="1.66667" strokeLinejoin="round"/>
<path d="M13.27 18.1884C13.27 18.3542 13.2042 18.5131 13.087 18.6304C12.9698 18.7476 12.8108 18.8134 12.645 18.8134C12.4793 18.8134 12.3203 18.7476 12.2031 18.6304C12.0859 18.5131 12.02 18.3542 12.02 18.1884C12.02 18.0227 12.0859 17.8637 12.2031 17.7465C12.3203 17.6293 12.4793 17.5634 12.645 17.5634C12.8108 17.5634 12.9698 17.6293 13.087 17.7465C13.2042 17.8637 13.27 18.0227 13.27 18.1884ZM17.4367 18.1884C17.4367 18.3542 17.3708 18.5131 17.2536 18.6304C17.1364 18.7476 16.9774 18.8134 16.8117 18.8134C16.6459 18.8134 16.487 18.7476 16.3697 18.6304C16.2525 18.5131 16.1867 18.3542 16.1867 18.1884C16.1867 18.0227 16.2525 17.8637 16.3697 17.7465C16.487 17.6293 16.6459 17.5634 16.8117 17.5634C16.9774 17.5634 17.1364 17.6293 17.2536 17.7465C17.3708 17.8637 17.4367 18.0227 17.4367 18.1884Z" fill="white" stroke="white" strokeWidth="0.416667"/>
<path d="M13.895 9.43842H15.5617" stroke="black" strokeWidth="1.66667" strokeLinecap="round" strokeLinejoin="round"/>
</mask>
<g mask="url(#mask0_164_1109)">
<path d="M4.72852 4.8551H22.9894V23.116H4.72852V4.8551Z" fill="#2E2B36"/>
</g>
</svg>
